<?xml version="1.0" encoding="utf-8"?>
<!-- Generator: Adobe Illustrator 27.5.0, SVG Export Plug-In . SVG Version: 6.00 Build 0)  -->
<svg version="1.1" id="_x2018_лой_x5F_1" xmlns="http://www.w3.org/2000/svg" xmlns:xlink="http://www.w3.org/1999/xlink"
	 x="0px" y="0px" viewBox="0 0 3200 2000" style="enable-background:new 0 0 3200 2000;" xml:space="preserve">
<rect style="fill:#FFFFFF;" width="3200" height="2000"/>
<g>
	<path style="fill:#E9F3FE;" d="M2851.061,1812.159c-0.868,2.415-152.734,5.308-153.824,7.722h-258.805l-15.743-0.056l-60.001-0.189
		h-678.243l-55.751-0.066l-6.92-0.011l-93-0.111l-42.411-0.056H964.19l-218.108-0.234H351.677c0,0-0.645-1.936-1.958-5.808
		l-0.211-0.489c0,0-0.223-0.479-0.223-0.712c-0.868-1.936-456.453-961.737,180.181-1136.154
		c243.674-66.765,347.154-100.142,600.842-423.933c214.715-274.048,969.903-127.556,1184.006,89.306
		c28.069,28.437,268.528,205.347,167.897,407.622c-63.539,127.7,124.007,159.398,218.107,166.84
		C3022.173,941.275,2853.24,1807.32,2851.061,1812.159z"/>
	<path style="fill:#DFEBFD;" d="M1041.702,404.654c34.225-55.036,129.699-5.941,129.699-5.941s37.15,125.467,56.37,133.962
		c19.221,8.496-10.816-113.473-10.816-113.473c39.817,7.879,124.171,84.931,124.171,84.931s-42.988,120.443-22.268,123.946
		c20.72,3.503,32.622-108.588,32.622-108.588c34.069,22.482,55.894,76.666,55.894,76.666
		c22.312,84.268-87.047,108.567-87.047,108.567s-13.997,42.062-2.41,98.613l0.001,0.001c0,0,3.215,10.765,4.639,27.848
		l-10.208-3.067c-0.012-2.988-0.136-5.91-0.39-8.756c0.006-0.02,0.003-0.035-0.006-0.052c-0.003-0.042-0.008-0.082-0.012-0.123
		c-0.226-1.788-0.556-4.334-0.987-7.445c0-0.004-0.001-0.008-0.002-0.012c0.002-0.007-0.004-0.008-0.002-0.015
		c-1.284-7.042-2.037-12.185-2.391-15.842c-0.002-0.012-0.002-0.023-0.001-0.034c-3.587-21.972-9.548-50.987-16.953-58.922
		c0,0,1.607-1.25,3.591-4.026c-1.146,1.284-2.339,2.622-3.591,4.026c-28.723,32.195-117.967,12.188-163.645-12.421
		c-45.678-24.609-20.335-31.964,12.57-46.373s86.059,7.964,104.909,4.101c18.851-3.862-2.239-19.724-35.44-26.977
		c-33.202-7.253-59.177,20.324-113.099,9.568c-53.921-10.756-64.239-121.358-64.239-121.358
		c32.821,22.107,103.724,21.635,109.97,9.904c6.246-11.732-90.235-39.355-104.088-47.6
		C1024.69,497.52,1007.478,459.69,1041.702,404.654z"/>
	<path style="fill:#CDE0FB;" d="M1769.354,557.413c-24.485-39.375-92.791-4.25-92.791-4.25s-26.578,89.763-40.329,95.841
		c-13.751,6.078,7.738-81.182,7.738-81.182c-28.486,5.637-88.836,60.762-88.836,60.762s30.754,86.169,15.931,88.675
		c-14.824,2.506-23.339-77.688-23.339-77.688c-24.375,16.085-39.988,54.849-39.988,54.849
		c-15.962,60.288,62.276,77.672,62.276,77.672s10.014,30.092,1.725,70.551l-0.001,0.001c0,0-2.3,7.701-3.319,19.923l7.303-2.194
		c0.008-2.138,0.097-4.229,0.279-6.265c-0.004-0.014-0.003-0.025,0.004-0.037c0.002-0.03,0.006-0.059,0.009-0.088
		c0.161-1.279,0.397-3.101,0.706-5.326c0-0.002,0.001-0.005,0.001-0.008c-0.001-0.004,0.003-0.006,0.001-0.011
		c0.919-5.038,1.457-8.718,1.711-11.333c0.001-0.008,0.001-0.017,0-0.024c2.567-15.72,6.831-36.479,12.129-42.155
		c0,0-1.149-0.894-2.569-2.88c0.819,0.919,1.674,1.876,2.569,2.88c20.549,23.033,84.398,8.719,117.077-8.887
		c32.68-17.606,14.549-22.868-8.993-33.176c-23.541-10.309-61.569,5.697-75.056,2.934c-13.485-2.763,1.603-14.111,25.355-19.3
		c23.754-5.189,42.337,14.54,80.914,6.845c38.578-7.695,45.959-86.823,45.959-86.823c-23.48,15.816-74.207,15.479-78.676,7.086
		c-4.469-8.393,64.558-28.156,74.469-34.054C1781.525,623.852,1793.84,596.788,1769.354,557.413z"/>
	<path style="fill:#AFCDFB;" d="M1444.953,1548.325c0,0-34.746-58.743-78.058-78.703c0,0,5.997,131.55-18.558,131.149
		c-24.543-0.389,3.894-147.07,3.894-147.07s-110.99-74.13-158.363-76.222c0,0,56.163,135.577,32.476,129.146
		c-23.698-6.431-88.694-144.789-88.694-144.789s-118.911-39.897-148.75,29.694c-29.839,69.591-3.293,110.244,14.152,117.331
		c17.456,7.076,133.742,21.996,128.602,36.648c-5.151,14.652-86.958,27.681-128.758,7.921c0,0,31.386,125.921,95.559,128.857
		c64.173,2.927,89.316-33.499,128.936-30.963c39.629,2.526,66.776,17.135,45.682,24.911c-21.083,7.776-86.413-8.7-121.882,13.74
		c-35.469,22.43-63.438,35.391-6.353,55.762c57.086,20.382,163.681,27.781,191.184-14.464c9.958,7.866,21.939,40.331,29.961,65.074
		v0.034c1.057,4.161,2.826,9.968,5.552,17.879c0,0.011,0.011,0.011,0.011,0.011c0,0.011,0,0.011,0,0.022
		c0.567,1.892,1.068,3.604,1.502,5.096h11.07c-0.935-2.927-1.825-5.496-2.625-7.666c-1.98-5.396-3.382-8.366-3.382-8.366
		c-23.341-63.271-14.586-114.316-14.586-114.316S1485.551,1641.726,1444.953,1548.325z M1336.088,1731.198
		c1.168-1.803,2.292-3.55,3.371-5.196C1337.879,1729.117,1336.411,1730.831,1336.088,1731.198z"/>
	<polygon style="fill:#94B0ED;" points="1528.774,1318.524 1528.774,1819.447 1486.363,1819.392 1484.771,1819.392 
		1484.771,1318.524 	"/>
	<path style="fill:#AFCDFB;" d="M1050.723,1318.522h501.201v-287.739c0-138.402-112.198-250.6-250.601-250.6h0
		c-138.403,0-250.6,112.198-250.6,250.6V1318.522z"/>
	<polygon style="fill:#AFCDFB;" points="1694.453,780.183 1286.025,780.183 1286.025,1106.492 1644.567,1106.492 	"/>
	<path style="fill:#628AD3;" d="M1443.853,1318.522h501.201v-287.739c0-138.402-112.197-250.6-250.601-250.6l0,0
		c-138.403,0-250.601,112.198-250.601,250.6V1318.522z"/>
	<path style="fill:#233862;" d="M1470.826,1289.551h447.255v-256.769c0-123.506-100.121-223.627-223.628-223.627l0,0
		c-123.506,0-223.627,100.121-223.627,223.627V1289.551z"/>
	<path style="fill:#628AD3;" d="M2343.102,1318.522H1436.32c-8,0-14.486-6.485-14.486-14.485l0,0
		c0-8.001,6.485-14.486,14.486-14.486h906.782c8.001,0,14.486,6.485,14.486,14.486l0,0
		C2357.588,1312.037,2351.103,1318.522,2343.102,1318.522z"/>
	<path style="fill:#94B0ED;" d="M1404.094,1345.086h212.404c7.515,0,13.607-6.092,13.607-13.607v-13.608H1389.7v12.822
		C1389.7,1338.642,1396.144,1345.086,1404.094,1345.086z"/>
	<g>
		<path style="fill:#163560;" d="M2568.479,818.671c0,0,19.162,31.576-16.864,51.46c0,0,27.692,9.986,37.335,6.218
			c0,0-2.39,2.487-4.207,3.396c0,0,26.025,8.264,38.999,3.752c12.974-4.511,40.911-130.525-35.908-137.173
			c0,0-60.593-21.696-73.405,45.924s-36.148,61.057-36.148,61.057s5.66,4.778,8.793,5.66c0,0,5.033-0.324,6.594-2.405
			c0,0-1.937,3.416-3.44,4.253c0,0,24.569,9.289,39.615,4.053C2544.887,859.63,2568.237,833.297,2568.479,818.671z"/>
		<path style="fill:#233862;" d="M2491.359,1813.494h98.005c0,0,2.349-14.937-2.771-26.269
			c-4.905-10.874-12.539-17.586-13.234-25.916c-6.228,6.412-13.891,10.536-28.06,8.63c-1.735,2.815-11.206,17.877-17.005,22.044
			C2521.891,1796.585,2493.332,1794.945,2491.359,1813.494z"/>
		<path style="fill:#2B478B;" d="M2572.343,1776.062c0,0-8.363,2.708-17.087,3.483c-15.438,1.376-17.688-3.221-17.688-3.221
			s-15.341-136.558-64.998-397.587c-7.163-37.701-9.99-58.566-12.578-92.075c-0.775-10.034-1.528-21.193-2.358-34.284
			c-2.249-35.18,3.09-94.391,29.49-109.949c12-7.087,28.355-5.143,50.346,12.174c1.726,1.365,3.505,2.828,5.306,4.39
			c64.344,55.662,37.964,215.509,40.563,290.661c0.438,12.458,1.671,22.591,4.236,29.534c3.32,8.976,10.449,21.422,12.065,33.148
			C2613.146,1609.806,2572.343,1776.062,2572.343,1776.062z"/>
		<path style="fill:#233862;" d="M2583.338,1449.653l-123.346-162.991c-0.775-10.034-1.528-21.193-2.358-34.284
			c-2.249-35.18,3.09-94.391,29.49-109.949l50.346,12.174c1.726,1.365,3.505,2.828,5.306,4.39
			C2607.119,1214.654,2580.739,1374.501,2583.338,1449.653z"/>
		<path style="fill:#233862;" d="M2931.992,1607.24l-40.789-89.113c0,0-14.559,4.081-22.732,13.452
			c-7.846,8.985-13.526,7.387-31.398-5.016c6.727,10.392,7.637,16.515,11.801,30.19c3.282,0.407,21.968,18.488,41.109,23.47
			C2897.614,1582.21,2914.306,1613.166,2931.992,1607.24z"/>
		<path style="fill:#2B478B;" d="M2504.34,1181.539c0,0,87.82,305.293,119.997,324.945s201.357,46.677,235.749,61.416
			c0,0,4.186-6.005,1.729-18.834c-0.545-2.849-5.397-13.103-5.397-13.103s-105.062-78.978-174.212-86.948
			c-17.159-1.978,34.939-264.037-81.021-274.503C2495.255,1164.952,2504.34,1181.539,2504.34,1181.539z"/>
		<path style="fill:#FFB27D;" d="M2374.163,680.972c0,0,1.962-9.787,4.172-17.254c0.979-3.305-5.838-25.01-10.554-27.681
			c-4.717-2.671-17.002,11.946-13.525,23.169c1.785,5.765,4.719,24.525,4.719,24.525L2374.163,680.972z"/>
		<path style="fill:#FFB27D;" d="M2374.163,680.972c0,0,2.563-5.674,4.88-6.594c2.315-0.92,4.797-10.199,6.497-13.877
			c0,0-1.642-2.407-4.515,0.689c-1.753,1.889-5.658,7.426-5.658,7.426L2374.163,680.972z"/>
		<path style="fill:#FFB27D;" d="M2779.667,719.249c0.601,1.24,1.435,3.456,2.179,5.539c0.013-0.568,0.021-1.129,0.027-1.682
			c0.038-4.149,15.529-26.729,21.899-28.142c6.37-1.413,15.359,19.739,7.405,31.433c-4.087,6.006-16.432,27.412-16.432,27.412
			l-13.668-8.252c0,0-0.086-5.759-3.775-10.43c-1.859-2.353-1.929-13.428-2.59-18.261
			C2774.713,716.865,2777.45,714.673,2779.667,719.249z"/>
		<path style="fill:#FFB27D;" d="M2521.9,899.508c-0.211,0.06,17.642,12.984,32.787,11.168
			c14.244-1.696,25.829-18.115,25.646-18.183c-5.627-2.014-6.113-10.229-0.898-44.444l-2.697,0.126l-45.363,2.171
			c0,0-1.061,14.017-2.974,27.085C2526.799,888.405,2524.587,898.71,2521.9,899.508z"/>
		<path style="fill:#ED975D;" d="M2531.375,850.346c0,0-1.061,14.017-2.974,27.085c24.762,2.973,41.142-17.582,48.337-29.257
			L2531.375,850.346z"/>
		<path style="fill:#163560;" d="M2582.003,844.055c0,0,15.96-18.496,21.659-35.494c4.068-12.135,4.592-59.282-42.827-59.535
			c0,0-13.683-0.677-27.632,5.998c-11.093,5.309-27.828,17.843-17.559,60.581l2.199,14.248L2582.003,844.055z"/>
		<path style="fill:#FFB27D;" d="M2465.001,1169.779c0,0,44.494,28.081,118.61,10.043c0.873-0.213,42.141-6.795,42.141-6.795
			c-1.034-2.829-44.399-74.479-45.416-77.079c-13.148-33.933,17.3-195.929-2.778-205.014c-5.126,5.584-19.778,9.405-32.319,8.292
			c-14.44-1.276-19.275-7.515-18.076-14.225c-15.98,7.555-28.26,14.579-28.26,14.579
			C2484.298,921.465,2465.001,1169.779,2465.001,1169.779z"/>
		<path style="fill:#FFB27D;" d="M2521.3,861.492c0,0,58.198,9.641,63.645-26.695c5.446-36.336,16.625-59.563-20.303-67.254
			c-36.929-7.692-46.242,5.089-51.011,16.775C2508.863,796.003,2506.301,858.047,2521.3,861.492z"/>
		<path style="fill:#163560;" d="M2538.202,762.699c0,0,9.632,45.012,33.209,54.963c23.577,9.95,35.188,4.964,35.188,4.964
			s-16.582-17.735-16.605-44.391C2589.993,778.235,2553.27,744.199,2538.202,762.699z"/>
		<path style="fill:#163560;" d="M2541.646,766.75c0,0-13.346,7.744-17.631,16.566c-4.285,8.822-8.427,27.678-13.883,26.204
			c0,0-7.725-30.77,8.239-45.151C2535.299,749.119,2541.646,766.75,2541.646,766.75z"/>
		<path style="fill:#F99746;" d="M2797.275,753.992c0,0-37.527,114.077-47.518,131.721c-6.016,10.646-73.623,52.736-112.864,80.48
			c-0.426,0.295-0.928,0.906-1.507,1.802c-0.011,0.021-0.021,0.033-0.044,0.054c-9.794,15.144-40.234,108.891-32.963,125.716
			c30.604,70.72,51.579,98.07,59.211,117.909c3.811,9.892-1.277,20.975-11.268,24.533c-12.578,4.477-31.096,10.111-52.954,13.855
			c-4.172,0.721-8.463,1.365-12.852,1.922c-60.314,7.654-101.149-6.496-121.883-16.956c-9.806-4.946-15.723-15.242-15.111-26.204
			c1.244-22.372,12.436-44.516,17.48-98.321c3.821-40.824-31.402-102.951-29.917-124.679c0.589-8.593,7.349-18.878,11.006-25.538
			c0,0,0-0.011,0.011-0.022c6.475-11.792,10.034-22.448,5.721-28.366c-28.704-39.394-90.678-93.713-93.211-107.274
			c-3.701-19.937-2.03-143.13-2.03-143.13c2.369-0.83,5.853-2.806,10.405-3.21c4.051-0.36,9.139,0.95,9.139,0.95
			s16.422,102.077,17.645,107.482c1.223,5.404,70.424,83.374,89.084,83.057c16.847-0.284,40.605,12.731,44.307,15.231
			c0,0-15.122,26.805-18.899,63c-2.632,25.32,14.281,14.063,24.905-3.276c14.379-23.475,43.324-56.896,43.324-56.896
			s23.551-6.125,41.098,0.24c17.546,6.354,108.333-44.908,111.237-49.625c2.915-4.717,51.535-95.318,51.535-95.318
			s4.029-2.336,10.493,1.026C2797.242,747.484,2797.275,753.992,2797.275,753.992z"/>
		<path style="fill:#FFFFFF;" d="M2538.202,841.762c0,0-2.491,5.021-5.838,5.112c-3.346,0.091-11.854-0.713-12.435-1.581
			c-0.579-0.868-1.99-6.115-1.99-6.115S2532.006,838.616,2538.202,841.762z"/>
		<path style="fill:#ED7D2B;" d="M2650.323,1236.207c-12.578,4.477-31.096,10.111-52.954,13.855
			c-20.812-28.693-56.03-64.79-46.969-131.186c9.369-68.633,76.841-140.87,84.942-150.828
			c-9.794,15.144-40.234,108.891-32.963,125.716c30.604,70.72,51.579,98.07,59.211,117.909
			C2665.401,1221.565,2660.313,1232.648,2650.323,1236.207z"/>
		<path style="fill:#ED7D2B;" d="M2446.104,960.264c6.475-11.792,10.034-22.448,5.721-28.366
			c-28.704-39.394-90.678-93.713-93.211-107.274c6.147,14.74,81.201,58.774,102.307,77.707
			C2481.785,921.023,2446.955,959.347,2446.104,960.264z"/>
	</g>
	<g>
		<path style="fill:#2C3A64;" d="M1874.037,556.12c0,0-3.014-32.852,33.691-32.852c0,0-11.122,3.017-16.875,9.051
			c0,0,23.41-13.744,48.887,7.375c25.477,21.119,9.646,74.083,17.395,84.14c7.747,10.056,37.917,12.068,34.229,44.584
			c-3.688,32.516-95.751,73.243-89.839,100.145c0,0-36.078-53.035-10.28-77.238c0,0-12.574,11.844-13.855,25.923
			c0,0-3.412-27.488,14.079-36.28c15.479-7.781,28.158-36.235,26.817-41.321C1916.945,634.562,1874.037,556.12,1874.037,556.12z"/>
		<path style="fill:#FFB27D;" d="M1925.846,694.067c0,0-52.221,131.779-63.476,126.896c-11.256-4.882-77.576-25.945-77.576-25.945
			l-4.362,16.142c0,0,63.111,48.634,95.585,50.762c32.474,2.128,76.463-93.556,76.463-93.556L1925.846,694.067z"/>
		<g>
			<path style="fill:#ED8537;" d="M1926.397,788.623l51.502,179.988c0.76,2.652,1.015,5.341,0.837,7.936
				c-0.622,9.463-7.101,17.95-16.734,20.707l-312.584,89.444c-9.684,2.771-19.691-1.079-25.215-8.839
				c-1.492-2.091-2.658-4.464-3.403-7.066l-51.48-179.913c-3.523-12.312,3.586-25.12,15.872-28.636l312.584-89.444
				C1910.037,769.292,1922.831,776.352,1926.397,788.623z"/>
			<g>
				<path style="fill:#DD6D22;" d="M1978.736,976.548c-0.622,9.463-7.101,17.95-16.734,20.707l-312.584,89.444
					c-9.684,2.771-19.691-1.079-25.215-8.839l159.205-145.043L1978.736,976.548z"/>
				<path style="fill:#F99746;" d="M1926.397,788.623l-139.938,173.776l-214.505-62.31l-2.635-9.208
					c-3.523-12.312,3.586-25.12,15.872-28.636l312.584-89.444C1910.037,769.292,1922.831,776.352,1926.397,788.623z"/>
			</g>
		</g>
		<path style="fill:#FFB27D;" d="M1807.93,798.386c0,0-28.597-12.08-32.561,3.209c-2.095,8.079-7.006,18.757,1.818,17.955
			c8.824-0.802,17.679-6.724,18.662-11.537C1796.833,803.199,1807.93,798.386,1807.93,798.386z"/>
		<path style="fill:#2B478B;" d="M2167.892,913.15c-0.24,0.433-0.497,0.882-0.754,1.331c-6,10.428-19.767,35.987-34.928,63.952
			c-7.172,13.268-14.681,27.082-21.804,40.078c-12.273,22.43-23.44,42.404-29.954,52.961c-6.627,10.733-11.504,18.274-13.478,21.291
			c-0.016,0.016-0.016,0.016-0.016,0.016c-0.594,0.931-0.723,2.021-0.642,3.112c0.689,9.466,0.497,18.868-0.434,28.126
			c-9.146,90.985-70.497,139.743-70.497,139.743l-18.242,2.695c0,0,25.814-95.639,33.42-149.707
			c1.283-9.161,1.845-16.59,1.396-21.435c-1.348-14.087,1.155-34.768,5.888-58.513c8.424-42.196,23.874-93.986,37.303-135.444
			c0.851-2.648,26.505-95.446,26.505-95.446c21.531,18.819,100.066,26.585,100.066,26.585S2195.038,864.874,2167.892,913.15z"/>
		<path style="fill:#233862;" d="M1938.858,1289.538h76.135c0,0,1.825-11.604-2.152-20.407c-3.81-8.447-9.241-8.716-0.693-21.957
			c-4.838,4.981-20.39,7.041-31.396,5.561c-1.349,2.187-8.694,16.855-13.199,20.092
			C1962.576,1276.402,1940.391,1275.128,1938.858,1289.538z"/>
		<path style="fill:#233862;" d="M2167.892,913.15c-0.24,0.433-0.497,0.882-0.754,1.331c-6,10.428-38.452,70.369-53.613,98.334
			c17.567-72.279,5.349-144.558,5.349-144.558L2167.892,913.15z"/>
		<path style="fill:#2C3A64;" d="M1884.421,551.501c-0.497-2,43.484,19.878,45.715,22.352c20.627,22.881,14.745,52.739,2.942,53.026
			c-7.569,0.184-6.103,12.769-6.103,12.769l-84.329-35.674C1842.646,603.974,1852.8,544.765,1884.421,551.501z"/>
		<path style="fill:#F9DDBF;" d="M1912.76,696.813c0,0-11.23,11.632-11.23,46.44c0,0,15.473,24.427,55.605,30.61
			C1957.135,773.862,1922.631,696.792,1912.76,696.813z"/>
		<path style="fill:#2B478B;" d="M2108.539,838.166l-0.258-14.24c28.371,3.578,97.823-33.902,97.823-33.902
			s29.681,19.741,33.743,76.118c1.983,27.517,14.529,143.89,15.918,178.64c0.506,12.595,0.674,21.583,0.731,25.175
			c-0.007,0.018-0.006,0.026-0.005,0.035c0.018,1.096,0.532,2.063,1.207,2.931c5.869,7.461,10.963,15.365,15.372,23.564
			c43.292,80.546,20.653,189.992,20.653,189.992l-10.054-2.557c0,0-36.605-113.458-60.528-162.535
			c-4.061-8.323-7.75-14.797-10.836-18.546c-8.995-10.926-18.48-29.48-27.83-51.81
			C2166.805,1008.815,2108.539,838.166,2108.539,838.166z"/>
		<path style="fill:#233862;" d="M2233.181,1289.538h76.135c0,0,1.825-11.604-2.152-20.407c-3.811-8.447-9.778-12.286-8.35-22.507
			c-4.838,4.981-12.723,10.56-23.729,9.078c-1.349,2.187-8.705,13.888-13.211,17.124
			C2256.898,1276.402,2234.713,1275.128,2233.181,1289.538z"/>
		<path style="fill:#F9DDBF;" d="M1962.274,790.212c10.227,1.745-1.67,9.874,12.396,11.402c20.02,2.185,40.689,3.681,51.517,7.998
			c3.949,1.575,6.591,3.52,7.415,6.007c4.693,14.113,34.417,38.363,34.417,38.363c132.572-6.034,138.087-63.96,138.087-63.96
			c-86.042-83.565-165.152-132.843-225.56-139.366c-10.339-1.116-23.411,5.445-32.723,9.59
			c-21.158,9.42-35.063,36.566-35.063,36.566S1923.417,783.584,1962.274,790.212z"/>
		<path style="fill:#F2CCAA;" d="M1974.67,801.614c20.02,2.185,40.689,3.681,51.517,7.998
			c4.425-66.119-26.777-115.852-26.777-115.852S1979.055,776.594,1974.67,801.614z"/>
		<path style="fill:#FFB27D;" d="M1957.398,682.568c0,0,50.344-2.75,59.289,28.857c8.945,31.607-16.782,157.771-22.327,170.793
			c-10.095,23.706-59.237,91.367-59.237,91.367l-18.07-5.503c0,0,32.767-103.364,40.082-113.592
			C1968.619,838.433,1942.33,696.32,1957.398,682.568z"/>
		<path style="fill:#FFB27D;" d="M1917.053,968.082c0,0-0.931,8.015-4.317,12.152c-3.387,4.137-13.24,14.15-13.413,20.011
			c0,0,0.498,2.603,2.61,2.127c2.112-0.476,9.45-7.741,13.217-7.22c0,0-2.01,11.748-4.002,15.055
			c-1.993,3.307-0.407,17.337,0.788,20.191c1.196,2.854,15.884-15.326,21.923-23.446c6.038-8.12,0.096-41.071,0.096-41.071
			L1917.053,968.082z"/>
		<path style="fill:#F9DDBF;" d="M2026.616,753.693c-0.131,0.741-47.642,8.741-77.356-6.342c0,0-24.825-77.77,10.65-74.049
			c35.477,3.721,56.483,14.894,57.377,31.879C2018.182,722.165,2026.616,753.693,2026.616,753.693z"/>
		<path style="fill:#FFB27D;" d="M1947.823,660.246c0,0-13.998,52.226-35.063,36.566c0.594-2.519-3.08-9.851-7.412-17.295
			c-5.535-9.514-12.13-19.237-12.13-19.237l28.495-24.965l1.7-1.492C1932.141,649.065,1940.7,655.048,1947.823,660.246z"/>
		<path style="fill:#ED985F;" d="M1893.221,660.29c0,0,6.587,9.702,12.124,19.228c17.71-10.918,17.729-32.844,16.365-44.202
			L1893.221,660.29z"/>
		<path style="fill:#FFB27D;" d="M1892.432,672.799c0,0,43.002-23.929,27.688-50.479c-15.313-26.55-20.077-47.52-48.181-33.365
			c-28.104,14.155-27.547,27.336-24.592,37.441C1850.304,636.502,1880.851,678.339,1892.432,672.799z"/>
		<path style="fill:#2C3A64;" d="M1840.084,610.911c1.97-11.789,7.958-12.914,12.133-12.127
			c15.882-26.263,41.827-16.013,41.827-16.013c13.857,17.391,33.894,20.358,33.894,20.358s-4.991,9.285-25.551,15.032
			c-6.28,1.755-13.409,0.692-20.283-1.621c14.265,7.954,29.182,11,29.182,11c-27.095,2.479-52.874-22.292-55.547-24.941
			c-1.251,3.839-3.443,11.876-2.131,17.751c1.783,7.985,8.872,22.446,4.544,24.317
			C1858.151,644.667,1837.13,628.59,1840.084,610.911z"/>
	</g>
	<g>
		<g>
			<path style="fill:#FFB27D;" d="M1313.876,998.129c2.676,3.067,3.017,6.494,1.692,10.154c-0.001,0.015-0.01,0.036-0.025,0.05
				c-2.45,6.769-10.542,14.327-19.941,21.875c-1.201,0.97-2.269,1.852-3.2,2.668c-0.245,0.215-0.489,0.429-0.719,0.645
				c-0.189,0.166-0.372,0.34-0.553,0.499c-8.765,8.08-5.466,9.931-21.213,26.326c-17.956,18.682-30.318,19.019-33.834,17.316
				c-2.975-1.451,3.07-11.359,9.768-22.496c0.325-0.536,0.643-1.08,0.976-1.623c0.892-1.48,1.778-2.983,2.664-4.472
				c7.85-13.403,5.833-19.692,3.973-39.639c-1.512-16.209-25.217-90.556-25.217-90.556l34.409-5.927
				c0,0,10.362,59.201,21.779,68.318c6.105,4.859,12.939,4.92,18.807,8.523c0.415,0.25,0.822,0.507,1.221,0.771
				C1307.796,992.773,1311.192,995.054,1313.876,998.129z"/>
			<path style="fill:#233862;" d="M1313.876,998.129c2.676,3.067,3.017,6.494,1.692,10.154c-0.001,0.015-0.01,0.036-0.025,0.05
				c-3,6.763-10.888,14.282-19.974,21.807c-1.187,0.985-2.235,1.891-3.167,2.736c-0.245,0.215-0.489,0.429-0.719,0.645
				c-0.189,0.166-0.372,0.34-0.553,0.499c-8.765,8.08-5.466,9.931-21.213,26.326c-17.956,18.682-30.318,19.019-33.834,17.316
				c-2.975-1.451,3.07-11.359,9.768-22.496c3.496-1.28,19.731-7.875,32.006-23.583c10.812-13.797,18.022-31.523,25.384-41.792
				c0.415,0.25,0.822,0.507,1.221,0.771C1307.796,992.773,1311.192,995.054,1313.876,998.129z"/>
			<path style="fill:#FFB27D;" d="M1036.422,976.639c-2.125,10.621-17.264,8.849-34.179,4.716
				c-16.915-4.133-12.894,0.78-36.967-1.885c-24.074-2.665-31.366-11.641-32.1-15.22c-0.658-3.176,11.238-4.296,23.996-5.766
				c1.604-0.18,3.216-0.378,4.828-0.577c14.405-1.807,24.954-11.103,38.039-18.736c12.393-7.231,30.89-36.692,30.89-36.692
				l33.014,2.615c0,0-17.324,26.313-24.025,37.754c-3.941,6.729-3.732,15.627-3.241,22.498
				C1036.932,969.08,1037.176,972.898,1036.422,976.639z"/>
			<path style="fill:#233862;" d="M1002.243,981.354c-16.915-4.133-12.894,0.78-36.967-1.885
				c-24.074-2.665-31.366-11.641-32.1-15.22c-0.658-3.176,11.238-4.296,23.996-5.766l0.119,0.246c0,0,14.437,10.236,34.476,10.716
				c16.332,0.396,33.631-4.283,44.91-4.1c0.255,3.735,0.5,7.552-0.254,11.293C1034.297,987.26,1019.158,985.488,1002.243,981.354z"
				/>
			<path style="fill:#233862;" d="M1162.941,765.538l30.863,83.047l40.292,108.435c0,0,10.935,1.055,21.406-1.956
				c9.64-2.787,20.702-10.076,20.702-10.076s-11.188-116.429-32.059-183.263c-5.348-17.155-11.343-31.032-17.958-38.843
				C1193.833,684.644,1162.941,765.538,1162.941,765.538z"/>
			<path style="fill:#2B478B;" d="M1194.32,633.648c20.219-6.522,77.886,1.852,135.815,13.191l12.129-20.005l125.124-9.771
				c0,0,41.289,91.563,18.685,149.905c-3.322,8.575-9.924,14.075-21.177,14.255c-0.004,0.005-1.822-0.005-1.827,0
				c0,0-74.471-0.043-98.653-0.043c-62.226,0-131.692-42.774-140.678-44.571c-14.708-2.942-20.592,26.476-35.301,57.364
				c-14.708,30.888-138.261,136.79-138.261,136.79s-18.989,0.188-26.833-2.753c-8.436-3.164-11.523-7.273-11.523-7.273
				S1148.724,648.357,1194.32,633.648z"/>
			<path style="fill:#A9453D;" d="M1307.405,452.874c39.463,32.091,134.537,87.706,135.058,87.466c0,0,30.455,18.247,51.235,9.294
				c34.633-14.922,61.229-67.163,13.324-124.96c-23.892-28.825-43.703-38.322-39.051-76.644c5.04-41.522-13.71-93.725-61.5-95.916
				c-3.994-0.183-28.194-3.416-45.468,2.006C1316.985,267.936,1243.376,431.611,1307.405,452.874z"/>
			<path style="fill:#FFB27D;" d="M1436.831,404.351c0.202,0.027-9.616,21.436-23.911,26.629
				c-15.188,5.545-36.759-3.462-36.557-3.584c2.583-1.474,4.423-11.212,3.422-22.924c-0.054-0.554-0.095-1.123-0.162-1.69
				c-1.339-13.105-5.126-27.455-5.369-28.388c-0.014-0.027-0.014-0.04-0.014-0.04l46.307-13.24l2.746-0.784
				C1426.2,396.926,1430.542,403.648,1436.831,404.351z"/>
			<path style="fill:#ED975D;" d="M1420.547,361.114c-4.49,13.457-15.945,37.773-40.924,41.668
				c-1.339-13.105-5.126-27.455-5.369-28.388c-0.014-0.027-0.014-0.04-0.014-0.04L1420.547,361.114z"/>
			<path style="fill:#FFB27D;" d="M1366.537,388.3c0,0,62.419-4.151,59.235-42.982c-3.183-38.832,2.729-65.52-37.258-64.511
				c-39.987,1.008-46.506,16.46-48.596,29.679C1337.828,323.705,1350.218,388.379,1366.537,388.3z"/>
			<path style="fill:#A9453D;" d="M1355.316,280.111c0,0,15.511,45.506,52.333,50.796c26.861,3.859,37.53-3.403,37.53-3.403
				s-14.993-14.248-23.119-36.164c-2.396-6.46-8.056-11.162-14.864-12.213C1388.072,276.177,1363.391,263.52,1355.316,280.111z"/>
			<path style="fill:#A9453D;" d="M1368.547,288.169c0,0-11.143,4.501-18.917,21.141c-4.249,9.093-7.321,30.745-4.699,39.669
				c0,0-17.947-41.521-4.952-60.236C1353.758,268.897,1368.547,288.169,1368.547,288.169z"/>
			<path style="fill:#AEC3FF;" d="M1488.792,547.657c-1.109,4.715-2.06,9.053-2.833,13.055c-1.268,6.458-2.14,12.025-2.754,16.938
				c-1.901,15.313-1.327,24.386-2.615,34.311c-0.713,5.547-2.021,11.371-4.655,18.681c-2.575,7.111-70.226,13.451-108.717,10.895
				c-12.223-0.792-21.533-2.516-24.841-5.368c-13.729-11.926-12.361,14.303-14.244-111.193
				c-0.911-61.212,51.941-115.73,51.941-115.73s4.22,26.149,56.637-4.972c1.862-1.089,22.504,29.477,42.374,67.116
				C1500.975,512.97,1494.972,521.765,1488.792,547.657z"/>
			<path style="fill:#2B478B;" d="M1193.804,848.584l40.292,108.435c0,0,10.935,1.055,21.406-1.956
				c9.64-2.787,20.702-10.076,20.702-10.076s-11.188-116.429-32.059-183.263L1193.804,848.584z"/>
			<path style="fill:#AEC3FF;" d="M1380.071,409.235c0,0-53.933,9.144-60.266,32.365c-6.333,23.221-50.088,153.09-50.088,153.09
				s33.904,11.568,46.57-1.098c12.666-12.666,44.073-117.513,44.073-117.513L1380.071,409.235z"/>
			<path style="fill:#FFFFFF;" d="M1376.956,363.357c0,0-1.526,6.726-8.326,7.856c-6.8,1.13-8.807,0.419-10.333-0.808
				c-1.526-1.227-3.264-3.788-3.264-3.788S1365.932,362.519,1376.956,363.357z"/>
			<path style="fill:#94B0ED;" d="M1483.205,577.649c-1.901,15.313-1.327,24.386-2.615,34.311
				c-48.97,0.159-114.442-37.817-114.442-37.817L1483.205,577.649z"/>
			<path style="fill:#94B0ED;" d="M1366.148,542.026c0,0,76.288-2.273,89.147-45.636c14.127-47.637,29.95,19.59,29.95,19.59
				l-8.419,42.907h-83.696L1366.148,542.026z"/>
			<polygon style="fill:#F9DDBF;" points="1381.638,613.933 1263.276,615.039 1205.033,478.162 1323.394,477.055 			"/>
			<path style="fill:#FFB27D;" d="M1366.158,552.078l-8.675-10.661c0,0-5.872-5.238-10.131-6.127
				c-4.261-0.89-13.258-6.079-14.13-4.617c-0.872,1.462,6.912,11.892,6.912,11.892l0.395,0.057
				c-8.936,6.72-31.497,0.787-34.282,3.529c-3.375,3.324,4.647,10.507,8.95,14.541c4.304,4.034,16.61,10.76,26.205,7.773
				c7.013-2.183,18.052-4.405,18.052-4.405L1366.158,552.078z"/>
			<path style="fill:#AEC3FF;" d="M1436.716,404.281c0,0,49.521,3.241,61.901,22.555c12.381,19.315,27.734,117.374,21.296,151.05
				c-6.438,33.677-165.023-6.439-165.023-6.439l5.059-29.219c0,0,91.523,0.529,96.738-11.391
				C1463.62,514.99,1436.716,404.281,1436.716,404.281z"/>
			<path style="fill:#FFB27D;" d="M1213.936,502.24c0,0,7.438-8.453,12.172-4.396c4.734,4.058-1.24,24.006-5.748,21.977
				C1215.852,517.793,1211.344,504.72,1213.936,502.24z"/>
		</g>
	</g>
	<g>
		<path style="fill:#163560;" d="M657.968,985.253c-2.637-7.946,88.405-20.544,78.242,52.111c0,0,163.296,21.913,100.073-81.122
			c-21.888-35.67-14.987-61.18-10.333-85.209c4.666-24.03-1.713-97.043-63.046-99.564c0,0-14.745-8.927-36.048-1.854
			C678.408,785.703,542.402,994.234,657.968,985.253z"/>
		<path style="fill:#F9DDBF;" d="M790.469,1083.286c0,0,5.828,11.54,16.398,24.8c12.74,15.956,79.611-21.92,73.851-24.8
			c-5.761-2.88-39.364-99.687-47.362-111.852c-8.007-12.164-35.274-18.481-35.274-18.481L790.469,1083.286z"/>
		<path style="fill:#233862;" d="M564.805,1736.202c0,0-18.457,16.844-14.855,28.812c3.601,11.968,20.257,19.946,22.508,34.574
			c2.251,14.627,11.254,22.605,19.357,22.605c8.103,0,38.631,0,38.631,0s5.965-10.293-8.44-13.396
			c-14.405-3.103-19.836-20.292-18.936-36.249c0.9-15.957-1.35-37.232-1.35-37.232l-30.611-7.093L564.805,1736.202z"/>
		<path style="fill:#233862;" d="M721.021,1743.354c0,0-6.64,71.354,1.463,75.344l103.699-0.213c0,0,0-11.967-16.656-14.627
			c-16.656-2.659-45.917-12.411-50.868-34.131C753.707,1748.008,721.021,1743.354,721.021,1743.354z"/>
		<path style="fill:#FFB27D;" d="M647.124,1231.437c21.339-47.856,34.397-61.593,31.904-76.446
			c-1.855-11.055,5.649-206.123,5.649-206.123c2.532-0.784,7.607-1.487,10.383-2.104c8.753-1.944,15.998-8.092,19.013-16.535
			c3.632-10.172,6.52-25.191,6.452-44.013l2.733,0.538l45.962,9.102c0,0-1.046,14.465-1.077,28.091c0,0.113,0,0.227-0.001,0.339
			c-0.056,11.835,7.708,22.279,19.078,25.562c5.806,1.675,10.856,3.108,10.856,3.108s16.878,48.185,20.101,97.684
			c3.224,49.501-30.69,71.005,0.255,169.922C850.028,1321.588,635.336,1257.88,647.124,1231.437z"/>
		<path style="fill:#E8945B;" d="M769.221,895.856c0,0-1.045,14.465-1.077,28.091c-25.72-0.725-39.314-24.187-44.885-37.192
			L769.221,895.856z"/>
		<path style="fill:#FFB27D;" d="M771.995,915.073c0,0-60.252-8.582-54.33-46.022c5.922-37.44,2.133-63.763,40.853-59.866
			c38.72,3.896,43.917,19.362,44.979,32.339C804.56,854.502,787.821,916.34,771.995,915.073z"/>
		<path style="fill:#163560;" d="M786.034,812.627c0,0-23.45,41.296-49.735,43.766c-26.286,2.471-36.161-6.04-36.161-6.04
			s21.82-12.301,30.118-38.52C730.256,811.834,776.953,789.748,786.034,812.627z"/>
		<path style="fill:#163560;" d="M781.389,815.543c0,0,11.475,6.505,15.079,16.203c3.524,9.484,5.872,21.676,2.649,35.66
			c0,0,17.151-27.875,5.91-46.981C793.106,800.167,781.389,815.543,781.389,815.543z"/>
		<path style="fill:#F9DDBF;" d="M641.251,1035.157c0,0-1.546,21.786,0,47.93c1.027,17.33,18.557,40.542,21.044,46.284
			c6.241,14.401,13.278,16.744,13.278,16.744l54.447,13.345l19.144,4.686l60.371-18.03c0,0,27.497-76.75,16.456-119.955
			c-11.041-43.204-27.91-73.207-27.91-73.207s-49.263,48.235-113.407-4.09L641.251,1035.157z"/>
		<path style="fill:#F2CCAA;" d="M636.065,1083.693c1.027,17.33,23.744,39.936,26.231,45.678
			c6.241,14.401,13.278,16.744,13.278,16.744l54.447,13.345l14.524-20.483c0,0-88.14-24.513-71.451-102.222L636.065,1083.693z"/>
		<path style="fill:#ED7D2B;" d="M805.696,1157.765c0,0,29.897,93.059,31.817,124.741c1.92,31.684-57.149,450.089-59.526,464.688
			c-2.24,13.762-19.328,22.533-19.328,22.533s-7.859,4.637-19.076,1.47c-15.563-4.395-20.482-9.656-20.482-9.656
			s-23.27-298.403-8.869-404.999c14.401-106.596,14.57-198.776,14.57-198.776H805.696z"/>
		<path style="fill:#F99746;" d="M679.028,1154.99c0,0-45.604,61.189-49.856,102.554c-4.251,41.364-6.67,186.658-15.728,226.982
			c-9.057,40.324-42.337,117.925-42.337,243.697c0,0,3.46,7.209,14.141,11.049c3.415,1.229,7.992,2.419,12.435,3.438
			c8.809,2.02,17.846-2.286,21.866-10.38c22.5-45.3,94.167-191.404,97.842-221.732c2.6-21.463,25.229-163.512,74.59-246.863
			c11.851-20.011-7.272-99.59-7.272-99.59L679.028,1154.99z"/>
		<path style="fill:#FFFFFF;" d="M763.795,890.981c0,0,0.336,4.576,11.418,5.645c0,0,9.305,0.898,9.795-3.995
			C785.009,892.631,776.624,887.759,763.795,890.981z"/>
		<path style="fill:#233862;" d="M810.472,1143.398c0,0-12.003,9.495-35.845,9.975c-28.48,0.573-99.05-7.261-99.05-7.261
			s-3.136,8.761-3.008,18.012c0,0,86.19,21.741,136.128,3.175C808.697,1167.299,815.138,1155.181,810.472,1143.398z"/>
		<g>
			<path style="fill:#FFFFFF;" d="M768.464,1163.208c0-8.111,5.829-14.709,12.995-14.709c7.167,0,12.996,6.598,12.996,14.709
				c0,8.11-5.83,14.708-12.996,14.708C774.293,1177.916,768.464,1171.318,768.464,1163.208z M772.771,1163.208
				c0,5.735,3.897,10.4,8.688,10.4c4.792,0,8.689-4.665,8.689-10.4s-3.897-10.401-8.689-10.401
				C776.669,1152.807,772.771,1157.473,772.771,1163.208z"/>
		</g>
		<polygon style="fill:#C5D9EA;" points="719.193,1204.671 848.735,1205.883 912.481,1056.075 782.938,1054.863 		"/>
		<path style="fill:#FFB27D;" d="M736.134,1136.974l9.495-11.668c0,0,6.426-5.733,11.089-6.707
			c4.663-0.974,14.51-6.653,15.465-5.053c0.955,1.601-7.565,13.015-7.565,13.015l-0.433,0.063c9.78,7.355,34.473,0.861,37.521,3.863
			c3.693,3.638-5.086,11.499-9.796,15.914c-4.71,4.415-18.179,11.776-28.68,8.508c-7.676-2.39-19.757-4.821-19.757-4.821
			L736.134,1136.974z"/>
		<path style="fill:#FFB27D;" d="M902.736,1082.428c0,0-8.141-9.251-13.321-4.811c-5.181,4.44,1.357,26.273,6.291,24.053
			C900.64,1099.45,905.574,1085.142,902.736,1082.428z"/>
		<path style="fill:#F9DDBF;" d="M684.675,948.863c0,0-43.196,3.028-59.754,43.28c-16.559,40.252-47.269,126.077-47.269,137.446
			s33.9,53.197,166.545,20.861c0,0,4.52-12.733-4.346-19.166c0,0-92.471-29.688-92.313-35.596
			c0.299-11.171,12.497-20.824,64.149-72.494C725.731,1009.148,684.675,948.863,684.675,948.863z"/>
	</g>
	<g style="opacity:0.7;">
		<polygon style="fill:#9EC3F6;" points="2169.951,580.184 2299.353,622.491 2221.84,546.942 2213.972,565.4 2180.663,565.563 		"/>
		<polygon style="fill:#FFFFFF;" points="2299.353,622.491 2198.924,546.091 2091.623,521.583 		"/>
		<polygon style="fill:#FFFFFF;" points="2221.84,546.942 2299.353,622.491 2247.686,516.652 		"/>
	</g>
	<g style="opacity:0.7;">
		<polygon style="fill:#9EC3F6;" points="1757.043,362.23 1620.527,381.704 1711.121,319.956 1715.728,339.751 1748.927,345.764 		
			"/>
		<polygon style="fill:#FFFFFF;" points="1620.527,381.704 1734.131,323.132 1845.474,317.532 		"/>
		<polygon style="fill:#FFFFFF;" points="1711.121,319.956 1620.527,381.704 1690.659,285.2 		"/>
	</g>
	<g>
		<path style="fill:#CDE0FB;" d="M1055.354,1819.392h-7.955c-41.555-8.077-188.603-39.853-187.356-84.867
			C861.4,1685.861,1031.111,1802.48,1055.354,1819.392z"/>
		<path style="fill:#CDE0FB;" d="M1119.505,1819.392h-30.24c-76.389-49.888-190.761-135.545-181.838-196.169
			c13.295-90.429,90.207,26.313,115.251,72.106C1038.265,1723.833,1085.827,1780.607,1119.505,1819.392z"/>
	</g>
	<g>
		<path style="fill:#CDE0FB;" d="M478.831,1049.993l-44.919,60.291c-0.662,0.888-1.458,1.624-2.33,2.2
			c-3.173,2.106-7.46,2.105-10.687-0.299l-104.706-78.011c-3.244-2.417-4.453-6.55-3.32-10.204c0.304-0.985,0.777-1.935,1.427-2.808
			l44.9-60.265c3.073-4.124,8.894-4.974,13.009-1.908l104.706,78.011C481.018,1040.061,481.88,1045.865,478.831,1049.993z"/>
		<g>
			<path style="fill:#BED7FB;" d="M431.581,1112.484c-3.173,2.106-7.46,2.105-10.687-0.299l-104.706-78.011
				c-3.244-2.417-4.453-6.55-3.32-10.204l85.092,15.497L431.581,1112.484z"/>
			<path style="fill:#DFEBFD;" d="M478.831,1049.993l-89.573-2.345l-32.361-83.666l2.298-3.085
				c3.073-4.124,8.894-4.974,13.009-1.908l104.706,78.011C481.018,1040.061,481.88,1045.865,478.831,1049.993z"/>
		</g>
	</g>
	<g>
		<path style="fill:#ED8537;" d="M2086.839,1396.057l51.791,285.232c0.764,4.203,0.745,8.385,0.073,12.357
			c-2.408,14.486-13.69,26.571-28.957,29.343l-495.36,89.945c-15.346,2.787-30.177-4.679-37.5-17.48
			c-1.978-3.45-3.412-7.286-4.161-11.41l-51.77-285.113c-3.542-19.511,9.375-38.158,28.844-41.693l495.359-89.945
			C2064.591,1363.764,2083.225,1376.602,2086.839,1396.057z"/>
		<g>
			<path style="fill:#DD6D22;" d="M2138.703,1693.646c-2.408,14.486-13.69,26.571-28.957,29.343l-495.36,89.945
				c-15.346,2.787-30.177-4.679-37.5-17.48l267.536-199.112L2138.703,1693.646z"/>
			<path style="fill:#F99746;" d="M2086.839,1396.057l-242.248,246.337l-320.985-128.87l-2.65-14.593
				c-3.542-19.511,9.375-38.158,28.844-41.693l495.359-89.945C2064.591,1363.764,2083.225,1376.602,2086.839,1396.057z"/>
		</g>
	</g>
	<path style="fill:#CDE0FB;" d="M2430.955,1742.646c11.971-6.353,27.992-37.416,1.513-85.067
		c-26.49-47.64-108.709-10.324-108.709-10.324s-36.381,103.858-52.88,110.211c-16.488,6.342,13.762-94.88,13.762-94.88
		c-33.766,4.984-107.808,66.231-107.808,66.231s18.792,62.114,18.97,90.818h166.885l60.001,0.189
		c8.511-23.309,11.648-45.271,11.648-45.271c-28.481,17.223-88.015,13.907-92.788,3.794
		C2336.787,1768.235,2418.973,1749.01,2430.955,1742.646z M2117.389,1803.393c-1.813,5.707-2.87,11.126-3.282,16.243h65.13
		c-8.756-25.967-11.737-78.347-11.737-78.347C2137.96,1758.778,2117.389,1803.393,2117.389,1803.393z"/>
	<path style="fill:#2E3552;" d="M2929.012,1826.3H258.809c-2.243,0-4.078-1.835-4.078-4.077v-4.672c0-2.242,1.835-4.077,4.078-4.077
		h2670.203c2.242,0,4.077,1.835,4.077,4.077v4.672C2933.089,1824.465,2931.254,1826.3,2929.012,1826.3z"/>
	<path style="fill:#2B478B;" d="M1812.406,1595.51c2.503-9.18,6.557-15.345,15.159-15.438c12.933-0.139,17.45,7.249,19.608,15.576
		c2.921,11.265-8.826,15.396-17.384,16.271C1817.552,1613.171,1810.143,1603.809,1812.406,1595.51z"/>
</g>
</svg>
